<svg width="168" height="50" fill="none" xmlns="http://www.w3.org/2000/svg">
  <path fill-rule="evenodd" clip-rule="evenodd" d="M33.87 0v16.15a16.93 16.93 0 0 1-.8 33.85H16.12V33.87H0V0h33.87ZM2.75 1.61 16.94 15.8 31.12 1.6H2.75Zm29.52 1.14v13.38H18.88L32.27 2.75Zm-.01 15h-14.5l-.02 14.5h14.52v-14.5ZM1.6 32.25V2.76l14.52 14.52v15l-14.52-.01ZM17.73 48.4h15.32a15.33 15.33 0 0 0 .8-30.63v16.11H17.74v14.52Z" fill="url(#paint0_linear_1661_3738)"/>
  <path d="M66.54 19.58V9.33h1.56l.2 1.2a3.5 3.5 0 0 1 3-1.5c1.35 0 2.44.56 3 1.62.78-1.24 2.08-1.61 3.33-1.61 2.08 0 3.46 1.24 3.46 3.68v6.86H79.2v-6.72c0-1.55-.66-2.2-2-2.2-1.51 0-2.46 1.28-2.46 2.67v6.25h-1.89v-6.72c0-1.57-.69-2.2-2-2.2a2.52 2.52 0 0 0-2.46 2.62v6.3h-1.85Z" fill="#fff"/>
  <path fill-rule="evenodd" clip-rule="evenodd" d="M93.3 14.46c0-3.68-2.25-5.42-5.05-5.42-2.78 0-5.06 1.74-5.06 5.42 0 3.54 2.15 5.42 5.04 5.42 2.9 0 5.06-1.83 5.06-5.42Zm-1.98 0c0 2.54-1.24 3.87-3.05 3.87-1.77 0-3.11-1.33-3.11-3.88 0-2.54 1.35-3.88 3.09-3.88 1.74 0 3.07 1.28 3.07 3.88Z" fill="#fff"/>
  <path d="M95.46 19.58V9.33h1.56l.2 1.2a3.5 3.5 0 0 1 3-1.5c1.35 0 2.44.56 3 1.62.78-1.24 2.08-1.61 3.33-1.61 2.08 0 3.46 1.24 3.46 3.68v6.86h-1.89v-6.72c0-1.55-.66-2.2-2-2.2-1.51 0-2.46 1.28-2.46 2.67v6.25h-1.89v-6.72c0-1.57-.69-2.2-2-2.2a2.52 2.52 0 0 0-2.46 2.62v6.3h-1.85Z" fill="#fff"/>
  <path fill-rule="evenodd" clip-rule="evenodd" d="M117.13 19.88c2.46 0 4.08-1.38 4.59-3.25l-2.05-.01a2.5 2.5 0 0 1-2.48 1.66c-1.71 0-3-1.04-3.15-3.4h7.8c0-4.14-1.97-5.84-4.81-5.84s-4.92 1.81-4.92 5.42c0 3.6 2.1 5.42 5.02 5.42Zm2.78-6.5h-5.8c.3-1.9 1.44-2.82 2.96-2.82 1.58 0 2.7.9 2.84 2.82Z" fill="#fff"/>
  <path d="M124.1 19.58V9.33h1.57l.21 1.3c.72-1 1.88-1.6 3.12-1.59 2.23 0 3.62 1.36 3.62 3.86v6.67h-1.89V12.9c0-1.53-.78-2.26-2.18-2.26a2.49 2.49 0 0 0-2.54 2.6v6.33l-1.9.01ZM139.84 19.67a5 5 0 0 1-1.4.2c-1.8 0-2.73-1.15-2.73-2.84v-6.08h-1.52V9.33h1.52l.12-2.46h1.77v2.46h2.2v1.62h-2.2v6.13c0 .77.37 1.14 1.08 1.14.4 0 .78-.05 1.16-.15v1.6ZM143.41 9.33v6.73c0 1.51.8 2.2 2.13 2.2 1.71 0 2.52-1.28 2.52-2.66V9.33h1.89v10.25h-1.56l-.21-1.18a3.7 3.7 0 0 1-3.08 1.48c-2.1 0-3.58-1.24-3.58-3.86V9.33h1.89ZM152.71 19.58V9.33h1.55l.2 1.2a3.5 3.5 0 0 1 3-1.5c1.36 0 2.45.56 3 1.62.79-1.24 2.09-1.61 3.34-1.61 2.08 0 3.46 1.24 3.46 3.68v6.86h-1.89v-6.72c0-1.55-.67-2.2-2-2.2-1.52 0-2.46 1.28-2.46 2.67v6.25H159v-6.72c0-1.57-.68-2.2-2-2.2a2.52 2.52 0 0 0-2.46 2.62v6.3h-1.84Z" fill="#fff"/>
  <path fill-rule="evenodd" clip-rule="evenodd" d="m73.89 37.84.33 1.44h1.56V25.1h-1.9v5.23a3.86 3.86 0 0 0-3.28-1.59c-2.74 0-4.65 1.81-4.65 5.48 0 3.47 1.95 5.36 4.53 5.36 1.36.04 2.65-.61 3.41-1.74Zm.1-3.56c0 2.13-1.15 3.67-3.1 3.67v.01c-1.71 0-2.97-1.24-2.98-3.7 0-2.68 1.19-3.9 2.98-3.9 1.89 0 3.1 1.42 3.1 3.92ZM82.97 39.58c2.46 0 4.08-1.37 4.59-3.25l-2.06-.01a2.5 2.5 0 0 1-2.48 1.66c-1.72 0-3-1.04-3.15-3.4h7.8c0-4.14-1.96-5.83-4.8-5.83s-4.92 1.81-4.92 5.42c0 3.6 2.1 5.41 5.02 5.41Zm2.78-6.5h-5.8c.3-1.9 1.44-2.82 2.96-2.81 1.58 0 2.7.9 2.84 2.81Z" fill="#fff"/>
  <path d="M92.96 34.61c-2.4-.53-3.37-1.43-3.37-2.95 0-1.75 1.4-2.92 3.98-2.92 2.28 0 3.86 1.13 4.2 3h-1.94c-.21-.94-1-1.5-2.28-1.5-1.42 0-2.05.54-2.05 1.25 0 .79.41 1.14 2.38 1.57 2.39.54 3.96 1.2 3.96 3.31 0 1.88-1.55 3.21-4.27 3.21-2.56 0-4.24-1.26-4.41-3.23h1.93c.21 1.23 1.06 1.74 2.5 1.74 1.53 0 2.33-.7 2.33-1.58.01-1.2-1.13-1.48-2.96-1.9Z" fill="#fff"/>
  <path fill-rule="evenodd" clip-rule="evenodd" d="M99.9 25.1v2.23h2.12V25.1h-2.13Zm.11 3.94v10.25h1.89V29.03h-1.89ZM109.11 41.64c-1.5 0-2.36-.64-2.54-1.67h-2.03c.34 1.91 1.9 3.15 4.63 3.15 3.04 0 4.73-1.72 4.73-4.05V29.04h-1.55l-.3 1.36a3.81 3.81 0 0 0-3.33-1.67c-2.78 0-4.65 1.97-4.65 5.18 0 3.27 2.13 5.06 4.53 5.06 1.57 0 2.72-.52 3.4-1.33v1.33c0 1.7-.98 2.67-2.89 2.67Zm3-7.62c0 2.07-1.15 3.35-3.1 3.35H109c-1.62 0-2.96-1.24-2.96-3.41 0-2.44 1.24-3.6 2.97-3.6 1.83 0 3.1 1.26 3.1 3.66Z" fill="#fff"/>
  <path d="M116.67 39.28V29.04h1.55l.22 1.3a3.78 3.78 0 0 1 3.11-1.6c2.23 0 3.63 1.36 3.63 3.86v6.67h-1.9V32.6c0-1.53-.78-2.26-2.18-2.26a2.5 2.5 0 0 0-2.54 2.6v6.33l-1.9.01Z" fill="#fff"/>
  <defs>
    <linearGradient id="paint0_linear_1661_3738" x1="5.17" y1="42" x2="40.17" y2="7" gradientUnits="userSpaceOnUse">
        <stop stop-color="#DB1F2E">
            <animate attributeName="stop-color" values="#DB1F2E; #F26B1D; #F2990A; #73A321; #00A3B5; #0A78CC; #643ABD; #C233C4;" dur="1s" repeatCount="indefinite"></animate>
        </stop>
        <stop offset=".12" stop-color="#F26B1D">
            <animate attributeName="stop-color" values="#F26B1D;#F2990A;#73A321;#00A3B5;#0A78CC;#643ABD;#C233C4;#DB1F2E;" dur="1s" repeatCount="indefinite"></animate>
        </stop>
        <stop offset=".25" stop-color="#F2990A">
            <animate attributeName="stop-color" values="#F2990A;#73A321;#00A3B5;#0A78CC;#643ABD;#C233C4;#DB1F2E;#F26B1D;" dur="1s" repeatCount="indefinite"></animate>
        </stop>
        <stop offset=".4" stop-color="#73A321">
            <animate attributeName="stop-color" values="#73A321;#00A3B5;#0A78CC;#643ABD;#C233C4;#DB1F2E;#F26B1D;#F2990A;" dur="1s" repeatCount="indefinite"></animate>
        </stop>
        <stop offset=".52" stop-color="#00A3B5">
            <animate attributeName="stop-color" values="#00A3B5;#0A78CC;#643ABD;#C233C4;#DB1F2E;#F26B1D;#F2990A;#73A321;" dur="1s" repeatCount="indefinite"></animate>
        </stop>
        <stop offset=".67" stop-color="#0A78CC">
            <animate attributeName="stop-color" values="#0A78CC;#643ABD;#C233C4;#DB1F2E;#F26B1D;#F2990A;#73A321;#00A3B5;" dur="1s" repeatCount="indefinite"></animate>
        </stop>
        <stop offset=".83" stop-color="#643ABD">
            <animate attributeName="stop-color" values="#643ABD;#C233C4;#DB1F2E;#F26B1D;#F2990A;#73A321;#00A3B5;#0A78CC;" dur="1s" repeatCount="indefinite"></animate>
        </stop>
        <stop offset="1" stop-color="#C233C4">
            <animate attributeName="stop-color" values="#C233C4;#DB1F2E;#F26B1D;#F2990A;#73A321;#00A3B5;#0A78CC;#643ABD;" dur="1s" repeatCount="indefinite"></animate>
        </stop>
    </linearGradient>
  </defs>
</svg>

